<svg aria-hidden="true" focusable="false" data-prefix="fas" data-icon="sun" class="svg-inline--fa fa-sun fa-w-16" role="img" xmlns="http://www.w3.org/2000/svg" viewBox="0 0 512 512">
  <defs>
    <linearGradient id="grad3" x1="0%" y1="0%" x2="100%" y2="0%">
        <stop offset="0%" stop-color="#E495A5"/>
        <stop offset="11.1%" stop-color="#D89F7F" stop-opacity="1"/>
        <stop offset="22.22%" stop-color="#BDAB66" stop-opacity="1"/>
        <stop offset="33.33%" stop-color="#96B56C" stop-opacity="1"/>
        <stop offset="44.44%" stop-color="#65BC8C" stop-opacity="1"/>
        <stop offset="55.55%" stop-color="#39BEB1" stop-opacity="1"/>
        <stop offset="66.66%" stop-color="#55B8D0" stop-opacity="1"/>
        <stop offset="77.77%" stop-color="#91ACE1" stop-opacity="1"/>
        <stop offset="88.88%" stop-color="#C29DDE" stop-opacity="1"/>
        <stop offset="100%" stop-color="#DE94C8"/>
    </linearGradient>
  </defs>
<path fill="url(#grad3)" d="M256 160c-52.9 0-96 43.1-96 96s43.1 96 96 96 96-43.1 96-96-43.1-96-96-96zm246.4 80.5l-94.7-47.3 33.5-100.4c4.5-13.6-8.4-26.5-21.9-21.9l-100.4 33.5-47.4-94.8c-6.4-12.8-24.6-12.8-31 0l-47.3 94.7L92.7 70.8c-13.6-4.5-26.5 8.4-21.9 21.9l33.5 100.4-94.7 47.4c-12.8 6.4-12.8 24.6 0 31l94.7 47.3-33.5 100.5c-4.5 13.6 8.4 26.5 21.9 21.9l100.4-33.5 47.3 94.7c6.4 12.8 24.6 12.8 31 0l47.3-94.7 100.4 33.5c13.6 4.5 26.5-8.4 21.9-21.9l-33.5-100.4 94.7-47.3c13-6.5 13-24.7.2-31.1zm-155.9 106c-49.9 49.9-131.1 49.9-181 0-49.9-49.9-49.9-131.1 0-181 49.9-49.9 131.1-49.9 181 0 49.9 49.9 49.9 131.1 0 181z"></path></svg>